<?xml version="1.0" encoding="UTF-8"?><svg id="Capa_1" xmlns="http://www.w3.org/2000/svg" viewBox="0 0 600 381.98"><defs><style>.cls-1{fill:none;stroke-miterlimit:10;stroke-width:7px;}.cls-1,.cls-2{stroke:#3369ff;}.cls-2{fill:#3369ff;stroke-width:2.26px;}</style></defs><path class="cls-2" d="M461.64,251.99v-37.71l-3.57-58.33c-.96-16.06-10.2-18.41-15.62-18.41-3.77,0-7.46,1.03-10.7,2.95l-4.01-28.43c-2.01-13.92-10.96-17.79-18.07-16.87-7.65,.98-15.2,7.29-18.65,16.06l-6.02-19.14c-3.23-10.38-10.16-13.39-14.05-14.26-3.39-.67-6.9-.47-10.2,.59-3.3,1.05-6.27,2.92-8.65,5.44-3.03,3.15-5.13,7.08-6.08,11.36-.94,4.27-.69,8.72,.74,12.86l16.66,53.13c-9.64-2.01-18.07,2.37-28.1,10.04-11,8.53-28.73,17.47-32.88,19.42-2.15,1.06-3.89,2.79-4.95,4.94-1.06,2.15-1.39,4.58-.93,6.93,.54,3.68,2.21,7.09,4.78,9.78-1.92,1.21-3.59,2.78-4.92,4.62-1.37,1.72-2.15,3.83-2.23,6.03-.08,2.2,.55,4.36,1.79,6.18,.74,1.02,1.59,2.01,2.49,3.15,4.68,5.37,8.34,11.55,10.8,18.23,5.54,14.2,15.1,20.58,22.76,25.72,7.29,4.88,12.45,8.33,13.83,16.79-1.19,.17-2.29,.76-3.09,1.67-.8,.91-1.25,2.07-1.27,3.27v31.04c.02,.67,.16,1.34,.44,1.95,.27,.62,.66,1.17,1.15,1.63,.49,.46,1.06,.83,1.69,1.07,.63,.24,1.3,.36,1.97,.34h105.33c.67,.02,1.34-.1,1.97-.34,.63-.24,1.2-.61,1.68-1.07,.48-.46,.87-1.02,1.14-1.64,.27-.62,.42-1.28,.43-1.95v-31c-.02-1.22-.48-2.39-1.29-3.29-.81-.91-1.92-1.49-3.13-1.65,.9-5.67,2.24-11.25,4.01-16.71,2.35-7.89,4.76-16.02,4.76-24.4Zm-14.81,72.03h-94.71v-20.96h23.87c1.33,0,2.61-.53,3.55-1.47,.94-.94,1.47-2.22,1.47-3.55s-.53-2.61-1.47-3.55c-.94-.94-2.22-1.47-3.55-1.47h-19.39c-1.65-13.76-10.16-19.44-18.41-24.96-7.15-4.78-14.53-9.74-18.95-21-2.85-7.69-7.05-14.8-12.41-21-.8-.94-1.49-1.77-2.01-2.49,.3-.94,.9-1.75,1.71-2.31,1.38-1.09,2.99-1.86,4.7-2.26,1.71-.4,3.49-.42,5.22-.06,7.61,1.53,9.84,4.42,13.19,8.8,3.85,5.53,9.02,10.01,15.06,13.01,5.82,2.91,10.72,5.04,16.24,3.61,5.52-1.43,9.78-5.6,15.86-12.51,2.31-2.36,3.75-5.43,4.08-8.72,.33-3.28-.46-6.58-2.26-9.36-2.79-4.92-7.75-9.5-13.49-14.56-9.29-8.23-19.25-2.51-27.26,2.01-7.35,4.24-14.95,8.59-24.09,6.79-1.37-.27-2.65-.88-3.72-1.77-1.08-.89-1.91-2.03-2.44-3.33-.49-1.02-.6-2.18-.3-3.27,5.46-2.53,23.31-11.67,34.85-20.6,13.13-10.2,18.45-10.04,26.8-4.7,1.94,1.22,4.04,2.15,6.24,2.77,2.5,.64,4.77,1.94,6.6,3.75,1.02,.93,2.35,1.43,3.72,1.41,1.38-.02,2.69-.56,3.68-1.51,.47-.47,.85-1.02,1.1-1.64s.38-1.28,.37-1.94c-.01-.67-.16-1.32-.43-1.93-.27-.61-.67-1.15-1.16-1.6-2.98-2.87-6.63-4.94-10.62-6.02-.82-.26-1.51-.48-2.19-.76l-19.43-61.71c-.92-2.44-1.13-5.09-.61-7.65,.52-2.56,1.75-4.92,3.55-6.81,1.08-1.23,2.46-2.17,4.01-2.73,1.54-.56,3.2-.72,4.83-.46,3.65,.82,5.5,4.48,6.4,7.37l21.04,67.81c1.23,3.75,3.21,7.21,5.82,10.16,3.49,3.78,5.61,8.62,6.02,13.75,.15,1.26,.76,2.43,1.72,3.26,.96,.84,2.19,1.29,3.46,1.27h.52c.67-.05,1.33-.22,1.93-.53,.6-.3,1.14-.72,1.57-1.23,.44-.51,.77-1.1,.97-1.74,.21-.64,.28-1.31,.22-1.98-.58-6.98-3.39-13.59-8.03-18.84-1.8-1.98-3.16-4.31-4.01-6.85v-.1l-2.73-8.53-3.83-27.49c-1.43-10.24,5.88-18.07,11.34-18.78,4.26-.54,5.82,4.2,6.38,8.25l12.39,88.94c.2,1.23,.83,2.34,1.78,3.14,.95,.8,2.16,1.23,3.4,1.22h.7c.67-.07,1.31-.27,1.9-.59,.59-.32,1.11-.76,1.52-1.29,.42-.53,.72-1.13,.91-1.78,.18-.65,.23-1.32,.15-1.99l-6.42-46.18c-.08-.76,0-1.54,.26-2.26,.25-.73,.67-1.39,1.21-1.93,.94-.98,2.06-1.76,3.3-2.3,1.25-.53,2.59-.81,3.94-.81,1.51,0,4.64,0,5.18,9l3.57,58.23v37.27c0,6.97-2.13,14.06-4.38,21.65-2.08,6.32-3.58,12.81-4.48,19.4h-19.35c-1.33,0-2.61,.53-3.55,1.47-.94,.94-1.47,2.22-1.47,3.55s.53,2.61,1.47,3.55c.94,.94,2.22,1.47,3.55,1.47h23.83v20.96Zm-114.42-108.59c3.73-1.61,7.34-3.47,10.82-5.56,8.85-5.08,11.68-6.02,14.81-3.31,13.03,11.51,14.05,14.94,10.74,18.8-3.69,4.2-7.85,8.59-10.58,9.3-1.73,.44-4.18-.56-8.69-2.83-4.63-2.3-8.58-5.76-11.48-10.04-1.66-2.29-3.55-4.4-5.64-6.31l.02-.04Z"/><path class="cls-1" d="M238.67,254.53V77.48h-60.01L65.78,255.83v38.32h126.91v49.37h45.98v-49.37h34.04v-39.62h-34.04Zm-123.53,0v-2.07l75.99-120.42h2.08v122.49H115.14Z"/></svg>