<?xml version="1.0" encoding="UTF-8"?><svg id="Capa_1" xmlns="http://www.w3.org/2000/svg" viewBox="0 0 600 381.98"><defs><style>.cls-1,.cls-2{fill:none;font-family:Inter-SemiBold, Inter;font-size:365.8px;font-variation-settings:'wght' 600, 'slnt' 0;stroke-width:7px;}.cls-1,.cls-2,.cls-3{stroke-miterlimit:10;}.cls-1,.cls-3{stroke:#3369ff;}.cls-2{stroke:#31eec3;}.cls-3{fill:#31eec3;}</style></defs><g><path class="cls-3" d="M511.47,332.2h-3.92c-4-3.01-4.21-5.97-.65-9.57,2.98-3.03,5.96-6.06,9-9.03,6.56-6.42,9.58-14.29,9.6-23.36,.04-18.96,.01-37.92,0-56.87,0-.9,0-1.81-.17-2.68-.48-2.54-2.46-4.26-4.7-4.18-2.35,.09-4.26,2.04-4.52,4.68-.07,.73-.04,1.47-.04,2.2,0,8.74,0,17.49,0,26.23,0,4.45-1.85,6.93-5.12,6.93-3.3,0-5.09-2.43-5.09-6.93,0-16.02,0-32.03,0-48.05,0-1.39,.03-2.79-.43-4.12-.69-1.99-2.06-3.08-4.21-3.11-3-.05-4.75,1.92-4.76,5.54-.02,16.42,0,32.85-.02,49.27,0,.98,.04,1.97-.1,2.94-.38,2.55-2.63,4.48-5.08,4.46-2.4-.02-4.54-1.77-4.95-4.27-.25-1.52-.31-3.09-.31-4.64-.02-20.84-.01-41.67-.02-62.51,0-1.14,.02-2.29-.08-3.43-.22-2.5-1.89-4.17-4.21-4.31-2.28-.14-4.42,1.63-4.77,4.06-.14,.96-.09,1.96-.09,2.94,0,21.49,0,42.98,0,64.47,0,1.06,.05,2.14-.11,3.18-.39,2.57-2.61,4.5-5.06,4.51-2.41,.01-4.5-1.67-5-4.22-.27-1.35-.31-2.76-.31-4.14-.02-15.53-.01-31.05-.02-46.58,0-1.06,.02-2.13-.07-3.18-.23-2.48-1.92-4.04-4.34-4.09-2.39-.06-4.27,1.46-4.61,3.85-.15,1.04-.1,2.12-.1,3.18,0,23.29,0,46.58-.01,69.87,0,1.14,.03,2.31-.18,3.42-.47,2.47-2.36,4.08-4.74,4.24-2.28,.15-4.24-1.12-5.14-3.4-.27-.68-.43-1.4-.61-2.12-1.69-6.82-3.31-13.65-5.07-20.44-.75-2.89-3.17-4.49-5.59-3.98-2.8,.59-4.36,2.98-3.76,6.14,1.62,8.58,3.52,17.12,4.95,25.73,1.4,8.46,4.83,15.66,11.2,21.5,3.55,3.26,6.84,6.79,10.22,10.23,3.57,3.64,3.43,6.36-.44,9.66h-4.41c-5.48-5.02-10.61-10.4-15.75-15.76-5.09-5.31-8.43-11.62-9.93-18.81-2.15-10.3-4.2-20.62-6.17-30.95-.72-3.79-.22-7.51,1.91-10.84,.87-1.36,.93-1.94-.97-1.93-8.49,.05-16.98,.03-25.47,.01-1.36,0-2.13,.13-1.11,1.71,2.4,3.71,2.71,7.76,1.86,12.01-1.74,8.8-3.5,17.6-5.15,26.42-1.48,7.93-4.31,15.26-9.78,21.3-5.31,5.87-10.95,11.43-16.74,16.84h-4.41c-3.88-3.3-4.01-6-.43-9.65,4.24-4.31,8.53-8.57,12.76-12.9,3.8-3.89,6.41-8.52,7.53-13.82,2.16-10.22,4.11-20.49,6.07-30.75,.61-3.17-.96-5.56-3.76-6.14-2.42-.51-4.77,1.11-5.6,3.98-.63,2.2-1.13,4.43-1.67,6.65-1.18,4.84-2.32,9.69-3.54,14.52-.86,3.4-2.98,5.08-5.84,4.76-2.89-.32-4.57-2.43-4.67-5.9-.03-.9-.01-1.8-.01-2.7,0-22.96,0-45.92,0-68.89,0-1.06,.05-2.14-.1-3.18-.35-2.4-2.21-3.9-4.61-3.84-2.43,.06-4.11,1.62-4.34,4.1-.1,1.05-.07,2.12-.07,3.18,0,15.93,.01,31.87-.02,47.8,0,4.58-1.99,7.14-5.32,7.13-3.3-.02-5.16-2.6-5.16-7.2,0-21.65,0-43.31,0-64.96,0-.98,.05-1.97-.09-2.94-.36-2.43-2.5-4.2-4.78-4.06-2.32,.15-3.98,1.81-4.2,4.32-.1,1.14-.08,2.29-.08,3.43,0,20.84,0,41.68-.02,62.51,0,1.55-.11,3.1-.3,4.64-.24,1.86-1.37,3.1-3.07,3.82-3.62,1.53-7.04-1.07-7.06-5.48-.04-12.67-.02-25.33-.02-38,0-4.49,.09-8.99-.04-13.48-.11-3.97-3.93-6.17-7.06-4.18-1.97,1.26-2.28,3.29-2.29,5.38-.03,6.62-.01,13.24-.01,19.86,0,9.97,0,19.94,0,29.91,0,1.47,.07,2.98-.92,4.22-1.38,1.74-3.14,2.6-5.38,2.02-2.45-.63-3.88-2.49-3.9-5.26-.04-9.4-.02-18.79-.02-28.19,0-1.14,.03-2.29-.44-3.37-.83-1.92-2.31-3.04-4.37-2.98-2.05,.06-3.56,1.18-4.18,3.2-.28,.92-.42,1.92-.42,2.89-.02,19.45-.09,38.9,.02,58.35,.05,8.71,3.13,16.27,9.4,22.45,3.08,3.04,6.14,6.11,9.17,9.2,3.55,3.61,3.33,6.57-.65,9.58h-3.92c-4.46-3.36-8.05-7.64-11.98-11.55-8.21-8.17-12.28-18.05-12.27-29.72,.06-47.56,.16-95.13-.09-142.69-.05-9.46,7.11-16.49,16.34-16.41,33.42,.29,66.85,.11,100.27,.11,.82,0,1.63,0,2.45-.03,1.09-.03,1.53-.64,1.68-1.7,.95-6.77-3.13-11.57-9.95-11.61-6.78-.04-13.57,.07-20.35-.04-9.29-.15-17.5-8.38-17.75-17.63-.28-10.47,6.95-19.52,16.65-19.84,12.25-.4,24.51-.14,36.77-.1,2.4,0,4.02,1.42,4.62,3.7,.59,2.25-.09,4.2-2.06,5.59-1.21,.86-2.6,.85-4,.85-10.71,0-21.41-.04-32.12,.02-6.78,.04-11.06,5.43-9.1,11.31,1.21,3.64,4.52,5.89,8.97,5.93,6.7,.05,13.4-.02,20.1,.03,8.44,.06,15.8,5.93,17.89,14.11,.55,2.18,.59,4.38,.48,6.57-.11,2.11,.65,2.93,2.81,2.87,4.74-.12,9.48-.04,14.22-.03,3.68,0,7.36-.07,11.03,.05,2.81,.09,4.73,2.18,4.79,4.89,.07,2.84-1.86,4.98-4.75,5.2-1.06,.08-2.12,.04-3.19,.04-46.09,0-92.18,0-138.28,0-5.72,0-7.25,1.54-7.25,7.3,0,21.33,0,42.66,0,63.99,0,.41,.02,.82,0,1.23-.08,1.32,.33,2.01,1.84,1.75,1.86-.33,3.75-.36,5.61-.02,1.6,.29,2.04-.37,2-1.84-.06-2.04-.04-4.09,0-6.13,.16-8.05,6.79-14.53,14.83-14.67,1.44-.02,3.09,1.06,4.24,0,1.22-1.1,.29-2.98,.74-4.46,.48-1.59-.38-2.05-1.8-2.05-3.11,.01-6.21,.02-9.32-.01-3.88-.04-5.75-1.86-5.77-5.69-.04-6.78-.04-13.57,0-20.35,.02-3.85,1.88-5.68,5.75-5.7,7.36-.03,14.71-.03,22.07,0,4.04,.02,5.85,1.82,5.88,5.83,.03,4.41,0,8.83,.02,13.24,0,.96-.22,2.18,.94,2.56,2.96,.94,5.66,2.33,7.89,4.42,.75-.73,.57-1.34,.57-1.88,.02-6.13-.01-12.26,.02-18.39,.02-3.88,1.85-5.75,5.69-5.76,7.44-.04,14.87-.04,22.31,0,3.84,.02,5.68,1.88,5.7,5.76,.03,6.7,.03,13.4,0,20.1-.02,4.03-1.83,5.86-5.83,5.88-6.7,.03-13.4,.01-20.1,.01-4.83,0-4.77,0-4.18,4.77,.21,1.67,.73,2.24,2.5,1.96,4.25-.67,8.15,.44,11.44,3.19,1.37,1.15,2.76,1.5,4.47,1.49,8.5-.05,17-.04,25.5-.01,4,.01,5.8,1.84,5.82,5.88,.03,6.54,.02,13.08,0,19.61-.01,4.51-1.73,6.24-6.21,6.25-7.03,.02-14.06,.06-21.08-.02-2.01-.02-2.81,.71-2.74,2.72,.1,2.78,.06,5.56,.02,8.33-.03,1.66,.68,2.37,2.36,2.34,3.19-.06,6.37-.01,9.56-.01,19.45,0,38.9-.03,58.35,.04,2.31,0,3.31-.66,3.16-3.06-.15-2.44-.13-4.91,0-7.35,.11-2.21-.67-3.05-2.96-3.02-7.03,.11-14.06,.06-21.08,.03-4.19-.01-5.98-1.8-6-5.95-.03-6.54-.02-13.08,0-19.61,.01-4.48,1.73-6.17,6.27-6.18,8.42-.02,16.84-.03,25.25,.02,1.64,.01,2.96-.36,4.23-1.47,2.69-2.34,5.93-3.39,9.48-3.4,4.22-.01,4.22,.01,4.78-4.16,.01-.08,0-.17,.03-.24,.71-1.99-.21-2.22-1.99-2.19-7.6,.1-15.2,.07-22.8,.03-3.72-.02-5.6-1.89-5.63-5.58-.04-6.86-.04-13.73,0-20.59,.02-3.69,1.91-5.54,5.64-5.56,7.44-.04,14.87-.04,22.31,0,3.87,.02,5.72,1.86,5.74,5.72,.04,6.21,0,12.42,.03,18.63,0,.58-.33,1.3,.46,1.81,1.95-1.77,4.05-3.37,6.64-4,1.75-.43,2.37-1.34,2.34-3.11-.09-4.49-.06-8.99-.01-13.48,.04-3.6,1.88-5.54,5.39-5.56,7.68-.05,15.36-.05,23.05,0,3.26,.03,5.21,1.95,5.24,5.2,.06,7.11,.07,14.22,0,21.33-.03,3.23-2,5.09-5.27,5.18-2.37,.06-4.74,.02-7.11,.02-4.5,0-4.43,0-4.31,4.5,.05,1.93,.57,2.53,2.63,2.23,9.01-1.3,16.88,5.58,17.02,14.69,.03,2.04,.04,4.09,0,6.13-.02,1.24,.41,1.81,1.75,1.6,1.61-.24,3.28-.48,4.88-.08,2.46,.61,2.85-.49,2.84-2.67-.07-17.98-.04-35.96-.04-53.94,0-4,.07-8.01-.03-12.01-.09-3.57-1.96-5.37-5.51-5.55-.82-.04-1.63-.02-2.45-.02-10.05,0-20.1,.02-30.16-.02-3.53-.02-5.67-2.25-5.45-5.48,.19-2.84,2.26-4.66,5.54-4.67,11.36-.03,22.72-.02,34.08,.01,.97,0,1.96,.15,2.9,.39,5.86,1.5,9.28,5.48,11.09,11.05v153.98c-2.34,15.52-13.2,25.15-24.03,34.82Zm-128.47-112c2.61,0,5.22-.03,7.84,.01,1.5,.03,2.3-.52,2.27-2.13-.04-2.37-.04-4.73,0-7.1,.03-1.58-.7-2.18-2.23-2.17-5.14,.03-10.28,.04-15.43,0-1.58,0-2.2,.74-2.18,2.25,.03,2.29,.04,4.57,0,6.86-.03,1.68,.74,2.34,2.39,2.3,2.45-.06,4.9-.02,7.35-.02Zm53.72-11.38c-2.53,0-5.06,.05-7.59-.02-1.68-.04-2.37,.68-2.32,2.34,.06,2.28,.05,4.57,0,6.85-.03,1.55,.63,2.22,2.19,2.21,5.14-.04,10.28-.03,15.42,0,1.55,.01,2.24-.67,2.22-2.21-.03-2.28-.04-4.57,0-6.85,.03-1.64-.68-2.38-2.35-2.35-2.53,.06-5.06,.02-7.59,.02Zm-113.23-31.77c1.55,0,3.09-.04,4.64,.01,1.54,.05,2.24-.61,2.21-2.18-.05-2.36-.05-4.72,0-7.08,.03-1.58-.73-2.18-2.24-2.15-2.03,.04-4.07,0-6.1,0-5.45,0-5.05-.46-5,4.98,.06,7.45-1.03,6.3,6.5,6.41Zm43.1,0c1.55,0,3.09-.04,4.64,.01,1.5,.04,2.29-.52,2.26-2.12-.04-2.36-.04-4.72,0-7.08,.03-1.55-.64-2.23-2.19-2.2-2.11,.05-4.23,0-6.35,0-5.26,0-4.86-.37-4.81,4.92,.07,7.5-1.03,6.36,6.44,6.46Zm86.4,0c1.55,0,3.09-.04,4.64,.01,1.56,.05,2.21-.68,2.18-2.21-.05-2.2-.08-4.4,.01-6.59,.08-1.86-.6-2.71-2.54-2.61-2.03,.1-4.07,.02-6.1,.02q-4.73,0-4.73,4.77,0,6.62,6.55,6.61Zm42.72,0c2.04,0,3.59-.02,5.13,0,1.41,.03,2.12-.57,2.1-2.03-.03-2.44-.03-4.88,0-7.32,.02-1.45-.67-2.06-2.09-2.04-2.11,.03-4.23,0-6.35,0-5.29,0-4.96-.43-4.9,4.83,.08,7.63-1.08,6.44,6.1,6.55Z"/><path class="cls-3" d="M409.96,187.23c-3.76,0-7.52,.04-11.27-.01-3.69-.05-5.55-1.91-5.57-5.63-.04-6.86-.04-13.73,0-20.59,.02-3.57,1.91-5.48,5.44-5.5,7.6-.05,15.2-.05,22.8,0,3.54,.02,5.42,1.94,5.45,5.5,.05,6.86,.04,13.73,0,20.59-.02,3.72-1.89,5.59-5.57,5.64-3.76,.05-7.52,.01-11.27,.01Zm-.02-21.57c-1.38,0-2.77,.06-4.15-.01-1.72-.09-2.59,.52-2.52,2.37,.08,2.27,.05,4.55,.01,6.83-.03,1.54,.63,2.23,2.19,2.21,3.01-.04,6.02-.03,9.03,0,1.39,.01,2.15-.52,2.13-2-.02-2.44-.03-4.88,0-7.32,.02-1.43-.62-2.1-2.06-2.07-1.54,.03-3.09,0-4.64,0Z"/><path class="cls-3" d="M469.95,137.08c-.03,2.91-2.26,5.07-5.18,5.01-2.9-.05-5.04-2.32-4.95-5.25,.08-2.8,2.24-4.89,5.06-4.89,2.91,0,5.1,2.2,5.07,5.12Z"/></g><text class="cls-2" transform="translate(46.94 343.52)"><tspan x="0" y="0">2</tspan></text><text class="cls-1" transform="translate(46.94 -62.46)"><tspan x="0" y="0">2</tspan></text></svg>