<?xml version="1.0" encoding="UTF-8"?><svg id="Capa_1" xmlns="http://www.w3.org/2000/svg" viewBox="0 0 600 381.98"><defs><style>.cls-1{fill:none;font-family:Inter-SemiBold, Inter;font-size:365.8px;font-variation-settings:'wght' 600, 'slnt' 0;stroke:#3369ff;stroke-miterlimit:10;stroke-width:7px;}.cls-2{fill:#3369ff;}</style></defs><g><path class="cls-2" d="M489.24,223.89c-2.22-2.81-5.14-4.98-8.48-6.28-3.33-1.3-6.95-1.7-10.49-1.14-3.12-3.49-7.36-5.77-11.99-6.47-4.63-.69-9.35,.25-13.36,2.66l-1.42,.82c-3.21-2.88-7.26-4.66-11.55-5.08-4.29-.41-8.61,.56-12.31,2.78l-41.68,24.15-14.13-1.79,19.72-14.13c2.59-1.86,4.71-4.31,6.17-7.15,1.46-2.84,2.22-5.99,2.22-9.18,.02-2.93-.61-5.84-1.85-8.5-1.23-2.66-3.03-5.03-5.28-6.92-2.24-1.89-4.88-3.26-7.71-4.02-2.83-.76-5.8-.89-8.69-.37l-4.26,.76c-17.29,2.99-33.73,9.64-48.23,19.52-.74,.55-1.24,1.36-1.4,2.27-.16,.91,.05,1.84,.56,2.61,.52,.76,1.31,1.3,2.21,1.49,.9,.19,1.84,.03,2.63-.46,13.67-9.29,29.17-15.54,45.46-18.33l4.26-.76c3.32-.59,6.74,.15,9.52,2.05,2.79,1.9,4.72,4.82,5.38,8.12,.16,.86,.25,1.74,.25,2.61,0,2.06-.49,4.08-1.43,5.91-.94,1.83-2.3,3.41-3.98,4.6l-27.14,19.43c-.58,.41-1.03,.99-1.27,1.66-.25,.67-.28,1.4-.1,2.09,.18,.7,.56,1.34,1.11,1.81,.54,.48,1.22,.78,1.94,.87l72.78,9.16c.8,.09,1.6-.09,2.29-.5l37.76-22.91c2.66-1.52,5.76-2.05,8.77-1.5,3.01,.55,5.73,2.14,7.68,4.5,1.95,2.36,3,5.33,2.98,8.39-.03,3.06-1.13,6.01-3.12,8.34l-34.35,38.17c-3.27,3.64-7.74,5.98-12.6,6.6l-102.34,13.01-3.07-5.32-38.61-66.98,16.47-12.65c.67-.6,1.08-1.43,1.17-2.33,.08-.89-.17-1.79-.72-2.5-.55-.71-1.34-1.2-2.23-1.35-.89-.15-1.8,.03-2.55,.52l-18.73,14.5-33.64,21.46c-.77,.5-1.32,1.27-1.54,2.16-.22,.89-.08,1.83,.37,2.63l44.31,77.06c.24,.43,.57,.8,.96,1.09,.39,.29,.85,.5,1.33,.6,.28,.03,.57,.03,.85,0,.68,0,1.35-.19,1.92-.55l33.09-21.17,103.79-13.24c6.54-.84,12.57-3.98,16.99-8.87l34.35-38.17c3.18-3.52,5.02-8.05,5.18-12.79,.16-4.74-1.36-9.39-4.29-13.12l.05,.09Zm-66-6.57c2.04-1.25,4.38-1.91,6.77-1.91s4.73,.66,6.77,1.91l-35.86,20.82-11.27-1.4,33.6-19.43Zm3.07,24.08l-13.74-1.72,35.95-20.85c2.15-1.3,4.64-1.95,7.16-1.87,2.52,.09,4.95,.9,7.02,2.35l-36.39,22.08Zm-126.98,81.8l-40.74-70.88,27.76-17.73,38.45,66.87,2.29,3.99-27.76,17.75Z"/><path class="cls-2" d="M489.24,223.89c-2.22-2.81-5.14-4.98-8.48-6.28-3.33-1.3-6.95-1.7-10.49-1.14-3.12-3.49-7.36-5.77-11.99-6.47-4.63-.69-9.35,.25-13.36,2.66l-1.42,.82c-3.21-2.88-7.26-4.66-11.55-5.08-4.29-.41-8.61,.56-12.31,2.78l-41.68,24.15-14.13-1.79,19.72-14.13c2.59-1.86,4.71-4.31,6.17-7.15,1.46-2.84,2.22-5.99,2.22-9.18,.02-2.93-.61-5.84-1.85-8.5-1.23-2.66-3.03-5.03-5.28-6.92-2.24-1.89-4.88-3.26-7.71-4.02-2.83-.76-5.8-.89-8.69-.37l-4.26,.76c-17.29,2.99-33.73,9.64-48.23,19.52-.74,.55-1.24,1.36-1.4,2.27-.16,.91,.05,1.84,.56,2.61,.52,.76,1.31,1.3,2.21,1.49,.9,.19,1.84,.03,2.63-.46,13.67-9.29,29.17-15.54,45.46-18.33l4.26-.76c3.32-.59,6.74,.15,9.52,2.05,2.79,1.9,4.72,4.82,5.38,8.12,.16,.86,.25,1.74,.25,2.61,0,2.06-.49,4.08-1.43,5.91-.94,1.83-2.3,3.41-3.98,4.6l-27.14,19.43c-.58,.41-1.03,.99-1.27,1.66-.25,.67-.28,1.4-.1,2.09,.18,.7,.56,1.34,1.11,1.81,.54,.48,1.22,.78,1.94,.87l72.78,9.16c.8,.09,1.6-.09,2.29-.5l37.76-22.91c2.66-1.52,5.76-2.05,8.77-1.5,3.01,.55,5.73,2.14,7.68,4.5,1.95,2.36,3,5.33,2.98,8.39-.03,3.06-1.13,6.01-3.12,8.34l-34.35,38.17c-3.27,3.64-7.74,5.98-12.6,6.6l-102.34,13.01-3.07-5.32-38.61-66.98,16.47-12.65c.67-.6,1.08-1.43,1.17-2.33,.08-.89-.17-1.79-.72-2.5-.55-.71-1.34-1.2-2.23-1.35-.89-.15-1.8,.03-2.55,.52l-18.73,14.5-33.64,21.46c-.77,.5-1.32,1.27-1.54,2.16-.22,.89-.08,1.83,.37,2.63l44.31,77.06c.24,.43,.57,.8,.96,1.09,.39,.29,.85,.5,1.33,.6,.28,.03,.57,.03,.85,0,.68,0,1.35-.19,1.92-.55l33.09-21.17,103.79-13.24c6.54-.84,12.57-3.98,16.99-8.87l34.35-38.17c3.18-3.52,5.02-8.05,5.18-12.79,.16-4.74-1.36-9.39-4.29-13.12l.05,.09Zm-66-6.57c2.04-1.25,4.38-1.91,6.77-1.91s4.73,.66,6.77,1.91l-35.86,20.82-11.27-1.4,33.6-19.43Zm3.07,24.08l-13.74-1.72,35.95-20.85c2.15-1.3,4.64-1.95,7.16-1.87,2.52,.09,4.95,.9,7.02,2.35l-36.39,22.08Zm-126.98,81.8l-40.74-70.88,27.76-17.73,38.45,66.87,2.29,3.99-27.76,17.75Z"/><path class="cls-2" d="M305.5,291.15c-2.14,0-4.23,.64-6.01,1.84-1.78,1.19-3.16,2.89-3.98,4.87-.82,1.98-1.03,4.16-.61,6.26,.42,2.1,1.45,4.03,2.97,5.54,1.52,1.51,3.45,2.54,5.55,2.96,2.1,.42,4.28,.2,6.26-.62,1.98-.82,3.67-2.21,4.86-3.99,1.19-1.78,1.82-3.88,1.82-6.02,0-2.87-1.15-5.63-3.19-7.66-2.03-2.03-4.79-3.17-7.67-3.17Zm0,14.55c-.73,0-1.45-.22-2.06-.62-.61-.41-1.09-.99-1.37-1.67-.28-.68-.35-1.42-.21-2.14,.14-.72,.5-1.38,1.02-1.9,.52-.52,1.18-.87,1.9-1.02,.72-.14,1.47-.07,2.14,.21,.68,.28,1.26,.76,1.67,1.37,.41,.61,.63,1.33,.63,2.06,0,.49-.1,.97-.28,1.42-.19,.45-.46,.86-.8,1.2-.34,.34-.75,.62-1.2,.8-.45,.19-.93,.28-1.42,.28Z"/><path class="cls-2" d="M305.5,291.15c-2.14,0-4.23,.64-6.01,1.84-1.78,1.19-3.16,2.89-3.98,4.87-.82,1.98-1.03,4.16-.61,6.26,.42,2.1,1.45,4.03,2.97,5.54,1.52,1.51,3.45,2.54,5.55,2.96,2.1,.42,4.28,.2,6.26-.62,1.98-.82,3.67-2.21,4.86-3.99,1.19-1.78,1.82-3.88,1.82-6.02,0-2.87-1.15-5.63-3.19-7.66-2.03-2.03-4.79-3.17-7.67-3.17Zm0,14.55c-.73,0-1.45-.22-2.06-.62-.61-.41-1.09-.99-1.37-1.67-.28-.68-.35-1.42-.21-2.14,.14-.72,.5-1.38,1.02-1.9,.52-.52,1.18-.87,1.9-1.02,.72-.14,1.47-.07,2.14,.21,.68,.28,1.26,.76,1.67,1.37,.41,.61,.63,1.33,.63,2.06,0,.49-.1,.97-.28,1.42-.19,.45-.46,.86-.8,1.2-.34,.34-.75,.62-1.2,.8-.45,.19-.93,.28-1.42,.28Z"/><path class="cls-2" d="M359.85,129.79c.75,.73,1.32,1.63,1.64,2.63,.32,1,.4,2.06,.21,3.09l-1.81,10.56c-.33,1.95-.24,3.95,.28,5.86,.52,1.91,1.45,3.68,2.72,5.2,1.27,1.51,2.86,2.73,4.65,3.57,1.79,.84,3.74,1.27,5.72,1.28,2.21,0,4.39-.53,6.34-1.56l9.5-4.99c.92-.5,1.95-.75,3-.75s2.08,.26,3,.75l9.48,4.99c2.25,1.18,4.78,1.7,7.3,1.51s4.95-1.07,7-2.57c2.05-1.49,3.64-3.53,4.6-5.87,.96-2.35,1.24-4.92,.81-7.42l-1.81-10.56c-.17-1.03-.09-2.09,.23-3.09,.32-1,.88-1.9,1.62-2.64l7.69-7.49c1.82-1.77,3.1-4.01,3.71-6.48,.61-2.46,.52-5.05-.27-7.46-.78-2.41-2.23-4.56-4.17-6.19-1.94-1.63-4.3-2.69-6.81-3.05l-3.55-.53c-.48-.1-.97-.11-1.45-.01-.48,.1-.94,.29-1.34,.57-.4,.28-.74,.64-1,1.05-.26,.42-.43,.88-.5,1.37-.07,.48-.04,.98,.09,1.45,.13,.47,.35,.91,.66,1.3,.31,.38,.69,.7,1.12,.93,.43,.23,.91,.37,1.4,.4l3.55,.53c1.19,.17,2.31,.68,3.23,1.46,.92,.78,1.61,1.8,1.98,2.94,.37,1.15,.42,2.37,.13,3.54-.29,1.17-.9,2.24-1.76,3.08l-7.67,7.49c-1.58,1.54-2.76,3.43-3.44,5.53-.68,2.1-.84,4.33-.47,6.5l1.83,10.56c.21,1.19,.08,2.42-.37,3.55-.45,1.12-1.21,2.1-2.19,2.82-.98,.72-2.14,1.14-3.34,1.23-1.21,.09-2.42-.16-3.49-.72l-9.48-4.99c-1.95-1.03-4.12-1.56-6.32-1.56s-4.37,.54-6.32,1.56l-9.5,4.99c-1.07,.57-2.28,.82-3.49,.73-1.21-.09-2.37-.52-3.34-1.23-.98-.72-1.73-1.69-2.18-2.82-.45-1.13-.57-2.36-.35-3.55l1.81-10.56c.37-2.17,.21-4.4-.47-6.5-.68-2.1-1.86-3.99-3.44-5.53l-7.67-7.49c-.86-.85-1.47-1.92-1.76-3.1-.28-1.18-.23-2.41,.15-3.56,.38-1.15,1.08-2.17,2.01-2.94,.93-.77,2.06-1.27,3.26-1.43l10.63-1.53c2.18-.32,4.25-1.16,6.03-2.46,1.78-1.3,3.22-3.01,4.19-4.99l4.76-9.62c.55-1.05,1.37-1.92,2.38-2.54,1.01-.61,2.17-.94,3.35-.94s2.34,.32,3.35,.94c1.01,.61,1.83,1.49,2.38,2.54l4.76,9.62c.49,.98,1.09,1.9,1.79,2.75,.63,.63,1.48,1.01,2.37,1.05,.89,.04,1.77-.26,2.46-.83,.69-.58,1.13-1.39,1.24-2.28,.11-.89-.11-1.79-.62-2.52-.33-.4-.62-.84-.85-1.31l-4.69-9.64c-1.13-2.27-2.86-4.18-5.02-5.51-2.15-1.33-4.63-2.04-7.17-2.04s-5.01,.71-7.17,2.04c-2.15,1.33-3.89,3.24-5.02,5.51l-4.76,9.62c-.46,.94-1.14,1.76-1.99,2.37-.85,.62-1.83,1.01-2.87,1.16l-10.6,1.56c-2.51,.36-4.87,1.42-6.81,3.05-1.94,1.63-3.38,3.78-4.17,6.19-.78,2.41-.88,5-.27,7.46,.61,2.46,1.9,4.71,3.71,6.48l7.65,7.49Z"/><path class="cls-2" d="M359.85,129.79c.75,.73,1.32,1.63,1.64,2.63,.32,1,.4,2.06,.21,3.09l-1.81,10.56c-.33,1.95-.24,3.95,.28,5.86,.52,1.91,1.45,3.68,2.72,5.2,1.27,1.51,2.86,2.73,4.65,3.57,1.79,.84,3.74,1.27,5.72,1.28,2.21,0,4.39-.53,6.34-1.56l9.5-4.99c.92-.5,1.95-.75,3-.75s2.08,.26,3,.75l9.48,4.99c2.25,1.18,4.78,1.7,7.3,1.51s4.95-1.07,7-2.57c2.05-1.49,3.64-3.53,4.6-5.87,.96-2.35,1.24-4.92,.81-7.42l-1.81-10.56c-.17-1.03-.09-2.09,.23-3.09,.32-1,.88-1.9,1.62-2.64l7.69-7.49c1.82-1.77,3.1-4.01,3.71-6.48,.61-2.46,.52-5.05-.27-7.46-.78-2.41-2.23-4.56-4.17-6.19-1.94-1.63-4.3-2.69-6.81-3.05l-3.55-.53c-.48-.1-.97-.11-1.45-.01-.48,.1-.94,.29-1.34,.57-.4,.28-.74,.64-1,1.05-.26,.42-.43,.88-.5,1.37-.07,.48-.04,.98,.09,1.45,.13,.47,.35,.91,.66,1.3,.31,.38,.69,.7,1.12,.93,.43,.23,.91,.37,1.4,.4l3.55,.53c1.19,.17,2.31,.68,3.23,1.46,.92,.78,1.61,1.8,1.98,2.94,.37,1.15,.42,2.37,.13,3.54-.29,1.17-.9,2.24-1.76,3.08l-7.67,7.49c-1.58,1.54-2.76,3.43-3.44,5.53-.68,2.1-.84,4.33-.47,6.5l1.83,10.56c.21,1.19,.08,2.42-.37,3.55-.45,1.12-1.21,2.1-2.19,2.82-.98,.72-2.14,1.14-3.34,1.23-1.21,.09-2.42-.16-3.49-.72l-9.48-4.99c-1.95-1.03-4.12-1.56-6.32-1.56s-4.37,.54-6.32,1.56l-9.5,4.99c-1.07,.57-2.28,.82-3.49,.73-1.21-.09-2.37-.52-3.34-1.23-.98-.72-1.73-1.69-2.18-2.82-.45-1.13-.57-2.36-.35-3.55l1.81-10.56c.37-2.17,.21-4.4-.47-6.5-.68-2.1-1.86-3.99-3.44-5.53l-7.67-7.49c-.86-.85-1.47-1.92-1.76-3.1-.28-1.18-.23-2.41,.15-3.56,.38-1.15,1.08-2.17,2.01-2.94,.93-.77,2.06-1.27,3.26-1.43l10.63-1.53c2.18-.32,4.25-1.16,6.03-2.46,1.78-1.3,3.22-3.01,4.19-4.99l4.76-9.62c.55-1.05,1.37-1.92,2.38-2.54,1.01-.61,2.17-.94,3.35-.94s2.34,.32,3.35,.94c1.01,.61,1.83,1.49,2.38,2.54l4.76,9.62c.49,.98,1.09,1.9,1.79,2.75,.63,.63,1.48,1.01,2.37,1.05,.89,.04,1.77-.26,2.46-.83,.69-.58,1.13-1.39,1.24-2.28,.11-.89-.11-1.79-.62-2.52-.33-.4-.62-.84-.85-1.31l-4.69-9.64c-1.13-2.27-2.86-4.18-5.02-5.51-2.15-1.33-4.63-2.04-7.17-2.04s-5.01,.71-7.17,2.04c-2.15,1.33-3.89,3.24-5.02,5.51l-4.76,9.62c-.46,.94-1.14,1.76-1.99,2.37-.85,.62-1.83,1.01-2.87,1.16l-10.6,1.56c-2.51,.36-4.87,1.42-6.81,3.05-1.94,1.63-3.38,3.78-4.17,6.19-.78,2.41-.88,5-.27,7.46,.61,2.46,1.9,4.71,3.71,6.48l7.65,7.49Z"/><path class="cls-2" d="M317.44,94.69l9.32,4.58c2.28,1.09,4.88,1.28,7.3,.55,2.42-.74,4.47-2.36,5.75-4.53l.48-.85c1.26-2.19,1.64-4.78,1.06-7.24-.57-2.46-2.06-4.61-4.16-6.02l-8.61-5.68c-1.13-.77-2.42-1.3-3.76-1.54-1.35-.25-2.73-.21-4.07,.1-1.33,.31-2.58,.88-3.68,1.7-1.1,.81-2.02,1.84-2.71,3.02l-1.19,2.06c-.68,1.19-1.11,2.5-1.26,3.86-.15,1.36-.03,2.74,.37,4.05,.4,1.31,1.06,2.52,1.95,3.57,.89,1.04,1.97,1.89,3.2,2.5v-.11Zm1.9-10.4l1.21-2.06c.19-.34,.45-.64,.77-.87,.32-.23,.68-.4,1.06-.48,.21-.02,.43-.02,.64,0,.57,0,1.12,.18,1.58,.5l8.73,5.7c.61,.4,1.04,1.02,1.2,1.72,.17,.71,.06,1.45-.31,2.08l-.48,.82c-.36,.63-.94,1.1-1.64,1.32-.69,.21-1.44,.15-2.09-.17l-9.32-4.58c-.35-.18-.67-.42-.92-.72-.26-.3-.45-.65-.57-1.02-.13-.36-.18-.75-.16-1.14,.02-.39,.12-.76,.3-1.11Z"/><path class="cls-2" d="M317.44,94.69l9.32,4.58c2.28,1.09,4.88,1.28,7.3,.55,2.42-.74,4.47-2.36,5.75-4.53l.48-.85c1.26-2.19,1.64-4.78,1.06-7.24-.57-2.46-2.06-4.61-4.16-6.02l-8.61-5.68c-1.13-.77-2.42-1.3-3.76-1.54-1.35-.25-2.73-.21-4.07,.1-1.33,.31-2.58,.88-3.68,1.7-1.1,.81-2.02,1.84-2.71,3.02l-1.19,2.06c-.68,1.19-1.11,2.5-1.26,3.86-.15,1.36-.03,2.74,.37,4.05,.4,1.31,1.06,2.52,1.95,3.57,.89,1.04,1.97,1.89,3.2,2.5v-.11Zm1.9-10.4l1.21-2.06c.19-.34,.45-.64,.77-.87,.32-.23,.68-.4,1.06-.48,.21-.02,.43-.02,.64,0,.57,0,1.12,.18,1.58,.5l8.73,5.7c.61,.4,1.04,1.02,1.2,1.72,.17,.71,.06,1.45-.31,2.08l-.48,.82c-.36,.63-.94,1.1-1.64,1.32-.69,.21-1.44,.15-2.09-.17l-9.32-4.58c-.35-.18-.67-.42-.92-.72-.26-.3-.45-.65-.57-1.02-.13-.36-.18-.75-.16-1.14,.02-.39,.12-.76,.3-1.11Z"/><path class="cls-2" d="M466.77,152.95l-9.32-4.58c-2.27-1.1-4.88-1.31-7.3-.57-2.42,.74-4.47,2.37-5.73,4.55l-.48,.82c-1.26,2.19-1.65,4.78-1.08,7.25,.57,2.46,2.05,4.62,4.15,6.04l8.61,5.8c1.65,1.11,3.6,1.7,5.59,1.7,.77,0,1.54-.08,2.29-.25,1.33-.31,2.59-.89,3.68-1.71,1.1-.82,2.02-1.85,2.7-3.03l1.19-2.06c.69-1.19,1.13-2.5,1.28-3.86,.16-1.36,.03-2.74-.37-4.05-.4-1.31-1.07-2.53-1.96-3.57-.89-1.04-1.99-1.89-3.22-2.49l-.05,.02Zm-1.9,10.42l-1.19,2.04c-.19,.34-.46,.64-.77,.88-.32,.24-.68,.4-1.06,.49-.39,.09-.8,.1-1.19,.02s-.77-.23-1.1-.46l-8.61-5.8c-.59-.41-.99-1.03-1.15-1.73-.15-.7-.04-1.43,.32-2.05l.48-.85c.37-.62,.95-1.09,1.65-1.29,.69-.21,1.44-.15,2.09,.17l9.32,4.58c.36,.16,.67,.4,.93,.7,.26,.3,.45,.64,.56,1.02,.11,.38,.14,.77,.09,1.16-.05,.39-.17,.77-.37,1.11Z"/><path class="cls-2" d="M466.77,152.95l-9.32-4.58c-2.27-1.1-4.88-1.31-7.3-.57-2.42,.74-4.47,2.37-5.73,4.55l-.48,.82c-1.26,2.19-1.65,4.78-1.08,7.25,.57,2.46,2.05,4.62,4.15,6.04l8.61,5.8c1.65,1.11,3.6,1.7,5.59,1.7,.77,0,1.54-.08,2.29-.25,1.33-.31,2.59-.89,3.68-1.71,1.1-.82,2.02-1.85,2.7-3.03l1.19-2.06c.69-1.19,1.13-2.5,1.28-3.86,.16-1.36,.03-2.74-.37-4.05-.4-1.31-1.07-2.53-1.96-3.57-.89-1.04-1.99-1.89-3.22-2.49l-.05,.02Zm-1.9,10.42l-1.19,2.04c-.19,.34-.46,.64-.77,.88-.32,.24-.68,.4-1.06,.49-.39,.09-.8,.1-1.19,.02s-.77-.23-1.1-.46l-8.61-5.8c-.59-.41-.99-1.03-1.15-1.73-.15-.7-.04-1.43,.32-2.05l.48-.85c.37-.62,.95-1.09,1.65-1.29,.69-.21,1.44-.15,2.09,.17l9.32,4.58c.36,.16,.67,.4,.93,.7,.26,.3,.45,.64,.56,1.02,.11,.38,.14,.77,.09,1.16-.05,.39-.17,.77-.37,1.11Z"/><path class="cls-2" d="M305.12,132.31c1.86,1.74,4.32,2.7,6.87,2.68h.73l10.35-.71c2.52-.18,4.88-1.32,6.61-3.17,1.72-1.85,2.69-4.29,2.69-6.82v-.94c0-2.53-.97-4.96-2.69-6.81-1.72-1.85-4.08-2.98-6.61-3.16l-10.35-.71c-1.37-.1-2.74,.09-4.03,.54-1.29,.46-2.48,1.18-3.48,2.11-1,.94-1.8,2.07-2.34,3.32-.54,1.26-.82,2.61-.82,3.98v2.29c0,1.37,.28,2.72,.83,3.97,.54,1.25,1.34,2.38,2.34,3.31l-.09,.09Zm3.96-9.67c0-.37,.07-.75,.21-1.09,.14-.35,.35-.66,.61-.93s.58-.48,.92-.62c.35-.14,.72-.22,1.09-.22h.21l10.37,.71c.72,.05,1.4,.38,1.89,.91,.49,.53,.77,1.23,.76,1.96v.94c0,.73-.27,1.42-.76,1.96-.49,.53-1.17,.86-1.89,.91l-10.37,.71c-.39,.02-.78-.03-1.15-.16-.37-.13-.7-.34-.99-.6s-.51-.59-.67-.94c-.16-.36-.24-.74-.24-1.13v-2.38Z"/><path class="cls-2" d="M305.12,132.31c1.86,1.74,4.32,2.7,6.87,2.68h.73l10.35-.71c2.52-.18,4.88-1.32,6.61-3.17,1.72-1.85,2.69-4.29,2.69-6.82v-.94c0-2.53-.97-4.96-2.69-6.81-1.72-1.85-4.08-2.98-6.61-3.16l-10.35-.71c-1.37-.1-2.74,.09-4.03,.54-1.29,.46-2.48,1.18-3.48,2.11-1,.94-1.8,2.07-2.34,3.32-.54,1.26-.82,2.61-.82,3.98v2.29c0,1.37,.28,2.72,.83,3.97,.54,1.25,1.34,2.38,2.34,3.31l-.09,.09Zm3.96-9.67c0-.37,.07-.75,.21-1.09,.14-.35,.35-.66,.61-.93s.58-.48,.92-.62c.35-.14,.72-.22,1.09-.22h.21l10.37,.71c.72,.05,1.4,.38,1.89,.91,.49,.53,.77,1.23,.76,1.96v.94c0,.73-.27,1.42-.76,1.96-.49,.53-1.17,.86-1.89,.91l-10.37,.71c-.39,.02-.78-.03-1.15-.16-.37-.13-.7-.34-.99-.6s-.51-.59-.67-.94c-.16-.36-.24-.74-.24-1.13v-2.38Z"/><path class="cls-2" d="M471.6,112.68l-10.37,.71c-2.52,.18-4.88,1.31-6.61,3.16-1.72,1.85-2.69,4.28-2.69,6.81v.94c0,2.53,.97,4.97,2.69,6.82,1.72,1.85,4.08,2.98,6.61,3.17l10.37,.71h.66c2.63-.02,5.15-1.08,7.01-2.94,1.86-1.87,2.9-4.39,2.91-7.02v-2.29c0-1.37-.27-2.72-.82-3.98-.54-1.26-1.34-2.39-2.34-3.32-1-.94-2.18-1.65-3.47-2.11-1.29-.46-2.66-.65-4.02-.55l.07-.09Zm2.63,7.86c.28,.27,.51,.6,.66,.96,.15,.36,.23,.75,.23,1.14v2.29c0,.39-.07,.78-.23,1.14-.15,.36-.38,.68-.67,.95-.29,.27-.63,.47-1,.6-.37,.13-.76,.18-1.15,.15l-10.35-.71c-.71-.05-1.38-.35-1.88-.87-.5-.51-.78-1.19-.8-1.9v-.94c0-.73,.28-1.43,.78-1.96,.5-.53,1.18-.85,1.9-.91l10.35-.71h.21c.72,0,1.41,.28,1.95,.76Z"/><path class="cls-2" d="M471.6,112.68l-10.37,.71c-2.52,.18-4.88,1.31-6.61,3.16-1.72,1.85-2.69,4.28-2.69,6.81v.94c0,2.53,.97,4.97,2.69,6.82,1.72,1.85,4.08,2.98,6.61,3.17l10.37,.71h.66c2.63-.02,5.15-1.08,7.01-2.94,1.86-1.87,2.9-4.39,2.91-7.02v-2.29c0-1.37-.27-2.72-.82-3.98-.54-1.26-1.34-2.39-2.34-3.32-1-.94-2.18-1.65-3.47-2.11-1.29-.46-2.66-.65-4.02-.55l.07-.09Zm2.63,7.86c.28,.27,.51,.6,.66,.96,.15,.36,.23,.75,.23,1.14v2.29c0,.39-.07,.78-.23,1.14-.15,.36-.38,.68-.67,.95-.29,.27-.63,.47-1,.6-.37,.13-.76,.18-1.15,.15l-10.35-.71c-.71-.05-1.38-.35-1.88-.87-.5-.51-.78-1.19-.8-1.9v-.94c0-.73,.28-1.43,.78-1.96,.5-.53,1.18-.85,1.9-.91l10.35-.71h.21c.72,0,1.41,.28,1.95,.76Z"/><path class="cls-2" d="M326.76,148.39l-9.32,4.58c-1.23,.61-2.32,1.46-3.2,2.5-.89,1.04-1.55,2.26-1.95,3.57-.4,1.31-.53,2.69-.37,4.05,.15,1.36,.58,2.67,1.26,3.86l1.19,2.06c.69,1.18,1.61,2.22,2.7,3.03,1.1,.82,2.35,1.4,3.68,1.71,.75,.17,1.52,.25,2.29,.25,1.99,0,3.94-.58,5.59-1.7l8.61-5.8c2.08-1.43,3.54-3.6,4.09-6.07,.55-2.47,.14-5.05-1.14-7.24l-.48-.82c-1.27-2.16-3.31-3.77-5.71-4.51-2.4-.74-4.99-.55-7.25,.52Zm6.57,12.16l-8.61,5.82c-.33,.22-.71,.37-1.1,.44s-.8,.06-1.19-.03c-.38-.08-.75-.25-1.06-.48-.32-.23-.58-.53-.77-.87l-1.21-2.06c-.2-.34-.32-.73-.36-1.12-.04-.39,0-.79,.11-1.17,.11-.38,.3-.73,.56-1.03,.26-.3,.57-.54,.93-.71l9.32-4.58c.39-.2,.82-.3,1.26-.3,.5,0,.99,.13,1.42,.38,.43,.25,.8,.61,1.05,1.04l.48,.85c.38,.62,.51,1.37,.36,2.08-.15,.71-.58,1.34-1.18,1.75Z"/><path class="cls-2" d="M326.76,148.39l-9.32,4.58c-1.23,.61-2.32,1.46-3.2,2.5-.89,1.04-1.55,2.26-1.95,3.57-.4,1.31-.53,2.69-.37,4.05,.15,1.36,.58,2.67,1.26,3.86l1.19,2.06c.69,1.18,1.61,2.22,2.7,3.03,1.1,.82,2.35,1.4,3.68,1.71,.75,.17,1.52,.25,2.29,.25,1.99,0,3.94-.58,5.59-1.7l8.61-5.8c2.08-1.43,3.54-3.6,4.09-6.07,.55-2.47,.14-5.05-1.14-7.24l-.48-.82c-1.27-2.16-3.31-3.77-5.71-4.51-2.4-.74-4.99-.55-7.25,.52Zm6.57,12.16l-8.61,5.82c-.33,.22-.71,.37-1.1,.44s-.8,.06-1.19-.03c-.38-.08-.75-.25-1.06-.48-.32-.23-.58-.53-.77-.87l-1.21-2.06c-.2-.34-.32-.73-.36-1.12-.04-.39,0-.79,.11-1.17,.11-.38,.3-.73,.56-1.03,.26-.3,.57-.54,.93-.71l9.32-4.58c.39-.2,.82-.3,1.26-.3,.5,0,.99,.13,1.42,.38,.43,.25,.8,.61,1.05,1.04l.48,.85c.38,.62,.51,1.37,.36,2.08-.15,.71-.58,1.34-1.18,1.75Z"/><path class="cls-2" d="M444.42,95.29c.88,1.51,2.15,2.77,3.66,3.64,1.52,.87,3.24,1.33,4.99,1.33,1.51,0,3.01-.33,4.37-.99l9.32-4.58c1.23-.6,2.33-1.45,3.22-2.49,.89-1.04,1.56-2.26,1.96-3.57,.4-1.31,.52-2.69,.37-4.05-.16-1.36-.6-2.68-1.28-3.86l-1.19-2.06c-.69-1.18-1.61-2.21-2.71-3.02-1.1-.81-2.35-1.39-3.68-1.7-1.34-.3-2.73-.31-4.08-.05-1.35,.27-2.63,.81-3.75,1.6l-8.61,5.8c-2.09,1.41-3.57,3.57-4.14,6.03-.57,2.46-.19,5.05,1.07,7.24l.48,.73Zm6.57-8.2l8.61-5.8c.47-.32,1.02-.5,1.58-.5,.22-.02,.44-.02,.66,0,.38,.09,.74,.26,1.05,.49s.58,.53,.78,.86l1.19,2.06c.2,.34,.32,.73,.36,1.12,.04,.39,0,.79-.11,1.17-.11,.38-.3,.72-.56,1.02-.26,.3-.57,.53-.93,.7l-9.32,4.58c-.65,.32-1.4,.38-2.09,.16-.69-.21-1.28-.68-1.64-1.31l-.46-.76c-.35-.63-.46-1.37-.29-2.08,.17-.7,.59-1.32,1.19-1.73h-.02Z"/><path class="cls-2" d="M444.42,95.29c.88,1.51,2.15,2.77,3.66,3.64,1.52,.87,3.24,1.33,4.99,1.33,1.51,0,3.01-.33,4.37-.99l9.32-4.58c1.23-.6,2.33-1.45,3.22-2.49,.89-1.04,1.56-2.26,1.96-3.57,.4-1.31,.52-2.69,.37-4.05-.16-1.36-.6-2.68-1.28-3.86l-1.19-2.06c-.69-1.18-1.61-2.21-2.71-3.02-1.1-.81-2.35-1.39-3.68-1.7-1.34-.3-2.73-.31-4.08-.05-1.35,.27-2.63,.81-3.75,1.6l-8.61,5.8c-2.09,1.41-3.57,3.57-4.14,6.03-.57,2.46-.19,5.05,1.07,7.24l.48,.73Zm6.57-8.2l8.61-5.8c.47-.32,1.02-.5,1.58-.5,.22-.02,.44-.02,.66,0,.38,.09,.74,.26,1.05,.49s.58,.53,.78,.86l1.19,2.06c.2,.34,.32,.73,.36,1.12,.04,.39,0,.79-.11,1.17-.11,.38-.3,.72-.56,1.02-.26,.3-.57,.53-.93,.7l-9.32,4.58c-.65,.32-1.4,.38-2.09,.16-.69-.21-1.28-.68-1.64-1.31l-.46-.76c-.35-.63-.46-1.37-.29-2.08,.17-.7,.59-1.32,1.19-1.73h-.02Z"/></g><text class="cls-1" transform="translate(92.86 343.52)"><tspan x="0" y="0">1</tspan></text></svg>