<?xml version="1.0" encoding="UTF-8"?><svg id="Capa_1" xmlns="http://www.w3.org/2000/svg" viewBox="0 0 600 381.98"><defs><style>.cls-1{fill:none;font-family:Inter-SemiBold, Inter;font-size:365.8px;font-variation-settings:'wght' 600, 'slnt' 0;stroke:#3369ff;stroke-miterlimit:10;stroke-width:7px;}.cls-2{fill:#3369ff;stroke:#fff;}</style></defs><g><path class="cls-2" d="M550.2,166.22h0l-28.58-74.32h0c-1.34-3.49-3.35-6.67-5.93-9.38-2.57-2.71-5.66-4.88-9.07-6.39-3.41-1.51-7.09-2.33-10.83-2.42s-7.45,.56-10.93,1.91h-.02l-.62,.26h0l-142.69,59.2h0c-6.81,2.8-12.26,8.14-15.19,14.9-2.93,6.76-3.11,14.39-.5,21.27h0l3.34,8.94h-7.37c-3.65,0-7.27,.73-10.64,2.14-3.37,1.4-6.43,3.46-9.01,6.05-2.58,2.59-4.62,5.66-6.01,9.04-1.39,3.38-2.1,7-2.09,10.65v95.82h0c.04,7.34,2.98,14.37,8.17,19.54,5.2,5.18,12.23,8.09,19.57,8.09h180.92c7.36,0,14.41-2.93,19.61-8.14,5.2-5.2,8.13-12.26,8.13-19.62h0v-95.71h0c-.01-1.21-.1-2.41-.27-3.59l4.12-1.66h0c6.89-2.84,12.4-8.24,15.36-15.07,2.97-6.83,3.15-14.55,.52-21.52Zm-47.55,13.98h-113.35l17.44-8.71h0c1.21-.61,2.15-1.65,2.63-2.91,.48-1.27,.47-2.66-.02-3.92h0l-9.02-22.57h0v-.02c-.56-1.31-1.6-2.35-2.92-2.89s-2.79-.55-4.1,0h-.02l-.32,.14h-.03l-.03,.03-36.09,18.07h0c-1.21,.6-2.16,1.64-2.64,2.91-.48,1.27-.47,2.67,.03,3.93l6.43,16.04h-19.96l-4.76-12.71h0c-1.62-4.27-1.51-9,.31-13.18,1.82-4.18,5.19-7.49,9.41-9.22h0l142.79-59.2h0c2.13-.89,4.41-1.34,6.72-1.35,2.31,0,4.59,.45,6.72,1.33,2.13,.88,4.07,2.17,5.7,3.81,1.63,1.63,2.92,3.56,3.81,5.69h0l.17,.44h0l28.57,74.28h0c1.6,4.3,1.46,9.05-.37,13.25-1.83,4.2-5.21,7.53-9.44,9.29h0l-3.63,1.44c-2.34-4.08-5.67-7.51-9.7-9.95-4.32-2.62-9.27-4.01-14.33-4.01h0Zm-180.84,10.79h180.91c4.31,.02,8.46,1.68,11.59,4.65,2.84,2.69,4.65,6.28,5.15,10.13h-214.41c.5-3.86,2.32-7.44,5.16-10.14,3.13-2.97,7.28-4.63,11.6-4.64h0Zm49.23-13.71l-5-12.53,26.43-13.23,5,12.55-26.43,13.21Zm148.68,126.5c0,4.5-1.79,8.82-4.97,12-3.18,3.18-7.49,4.98-11.99,4.99h-180.91c-4.5-.01-8.81-1.8-11.99-4.99-3.18-3.18-4.97-7.5-4.97-12v-53.16h214.83v53.16Zm0-63.94h-214.88v-23.28h214.88v23.28Z"/><path class="cls-2" d="M462.37,272.09v-.02c.89,.07,1.78,.22,2.65,.45-3.2,4.5-4.93,9.89-4.93,15.44s1.73,10.92,4.92,15.42c-1.72,.42-3.51,.55-5.28,.37-2.3-.22-4.52-.94-6.51-2.11-1.99-1.17-3.7-2.76-5.01-4.66-1.31-1.9-2.19-4.06-2.58-6.34-.39-2.28-.28-4.61,.33-6.84,.6-2.23,1.69-4.3,3.18-6.06,1.49-1.77,3.34-3.19,5.43-4.16,2.09-.98,4.37-1.48,6.68-1.48h1.13Zm-22.69,31.99c2.22,2.79,4.98,5.1,8.11,6.8,4.07,2.36,8.69,3.6,13.39,3.6s8.9-1.13,12.83-3.28c3.4,1.87,7.17,2.98,11.04,3.25,4.09,.28,8.2-.38,11.99-1.95,3.79-1.56,7.18-3.98,9.89-7.06,2.71-3.08,4.67-6.75,5.73-10.71,1.06-3.96,1.2-8.12,.39-12.14-.8-4.03-2.52-7.81-5.03-11.06-2.5-3.25-5.72-5.88-9.41-7.69-3.68-1.8-7.73-2.74-11.84-2.72-4.47,0-8.86,1.12-12.76,3.28-2.88-1.69-6.06-2.82-9.36-3.34-3.53-.55-7.13-.39-10.59,.47-3.46,.86-6.72,2.42-9.57,4.56-2.85,2.15-5.25,4.84-7.04,7.93-1.79,3.09-2.95,6.5-3.4,10.05-.45,3.54-.19,7.14,.78,10.58,.96,3.44,2.61,6.65,4.83,9.44Zm49.35-.47c-2.01,.27-4.05,.15-6.01-.34,3.2-4.49,4.93-9.88,4.93-15.43s-1.73-10.93-4.93-15.43c1.96-.49,4-.61,6.01-.34,2.53,.34,4.94,1.28,7.03,2.75,2.09,1.47,3.79,3.42,4.97,5.68,1.18,2.27,1.79,4.78,1.79,7.34s-.61,5.07-1.79,7.34c-1.18,2.27-2.88,4.22-4.97,5.68-2.09,1.47-4.5,2.41-7.03,2.75Zm-18.14-15.69c0-3.39,1.11-6.67,3.13-9.36,2.02,2.69,3.13,5.97,3.13,9.36s-1.11,6.67-3.13,9.36c-2.02-2.69-3.13-5.97-3.13-9.36Z"/><path class="cls-2" d="M516.45,144.23l-.46-1.03-1.03,.46-40.62,18.06-1.03,.46,.46,1.03,3.46,7.79,.46,1.03,1.03-.46,40.62-18.06,1.03-.46-.46-1.03-3.46-7.79Z"/><path class="cls-2" d="M507.36,126.21l-.47-1.03-1.03,.47-58.68,27.09-1.03,.47,.47,1.03,3.57,7.74,.47,1.03,1.03-.47,58.68-27.09,1.03-.47-.47-1.03-3.57-7.74Z"/></g><text class="cls-1" transform="translate(46.94 343.52)"><tspan x="0" y="0">3</tspan></text></svg>